<svg width="81" height="80" viewBox="0 0 81 80" fill="none" xmlns="http://www.w3.org/2000/svg">
<g clip-path="url(#clip0_611_8)">
<path d="M73.1696 56.5334L62.6059 32.1668C59.0284 23.9001 52.4471 23.5668 48.0259 31.4334L41.6471 42.8001C38.4071 48.5668 32.3659 49.0668 28.1809 43.9001L27.4384 42.9668C23.0846 37.5668 16.9421 38.2334 13.8034 44.4001L7.99838 55.9001C3.91463 63.9001 9.82088 73.3334 18.8659 73.3334H61.9309C70.7059 73.3334 76.6121 64.5001 73.1696 56.5334ZM23.5234 26.6668C26.2087 26.6668 28.784 25.6132 30.6828 23.7378C32.5816 21.8625 33.6484 19.3189 33.6484 16.6667C33.6484 14.0146 32.5816 11.471 30.6828 9.59568C28.784 7.72032 26.2087 6.66675 23.5234 6.66675C20.8381 6.66675 18.2627 7.72032 16.3639 9.59568C14.4651 11.471 13.3984 14.0146 13.3984 16.6667C13.3984 19.3189 14.4651 21.8625 16.3639 23.7378C18.2627 25.6132 20.8381 26.6668 23.5234 26.6668Z" stroke="#5B5B5B" stroke-width="1.5" stroke-linecap="round" stroke-linejoin="round"/>
<rect x="-14.6963" y="-12" width="128" height="2" transform="rotate(40.6688 -14.6963 -12)" fill="#5B5B5B"/>
<rect x="88.5674" y="-2.52783" width="128" height="2" transform="rotate(137.395 88.5674 -2.52783)" fill="#5B5B5B"/>
</g>
<defs>
<clipPath id="clip0_611_8">
<rect width="81" height="80" fill="white"/>
</clipPath>
</defs>
</svg>
